<svg xmlns="http://www.w3.org/2000/svg" viewBox="0 -0.5 100 100" shape-rendering="crispEdges">
<metadata>Made with Pixels to Svg https://codepen.io/shshaw/pen/XbxvNj</metadata>
<path stroke="#000000" d="M0 0h3M4 0h2M8 0h1M10 0h2M13 0h6M22 0h2M25 0h10M37 0h6M44 0h18M63 0h1M65 0h2M68 0h3M72 0h1M75 0h3M79 0h6M88 0h3M93 0h3M98 0h2M0 1h4M5 1h1M7 1h2M10 1h3M14 1h16M31 1h1M33 1h3M37 1h3M41 1h2M46 1h1M48 1h1M50 1h2M55 1h1M57 1h1M59 1h5M67 1h3M71 1h10M82 1h3M87 1h4M92 1h8M0 2h5M6 2h3M10 2h9M20 2h5M27 2h1M29 2h1M31 2h6M38 2h9M48 2h4M53 2h4M58 2h2M62 2h1M64 2h1M66 2h4M71 2h8M82 2h8M91 2h9M1 3h4M7 3h1M9 3h1M11 3h11M23 3h1M25 3h3M29 3h2M32 3h2M36 3h10M47 3h9M57 3h2M60 3h3M64 3h1M67 3h1M69 3h2M72 3h1M74 3h1M77 3h3M82 3h4M87 3h2M90 3h1M93 3h4M98 3h2M0 4h1M2 4h6M10 4h1M12 4h2M16 4h6M23 4h4M28 4h8M38 4h2M42 4h5M48 4h2M51 4h3M56 4h8M65 4h3M69 4h3M73 4h2M76 4h9M86 4h13M0 5h1M2 5h3M6 5h4M11 5h2M14 5h2M17 5h2M20 5h9M31 5h2M34 5h1M36 5h2M39 5h1M42 5h1M44 5h1M46 5h10M57 5h4M62 5h2M65 5h1M67 5h4M72 5h1M75 5h1M77 5h2M80 5h1M82 5h3M86 5h2M89 5h5M95 5h5M1 6h2M4 6h10M16 6h1M19 6h5M25 6h3M29 6h2M32 6h3M39 6h1M41 6h8M50 6h2M54 6h2M57 6h4M62 6h1M64 6h10M76 6h1M78 6h2M87 6h3M91 6h3M95 6h5M0 7h3M5 7h5M11 7h2M14 7h2M17 7h4M22 7h2M25 7h1M27 7h2M30 7h6M37 7h8M46 7h2M49 7h14M64 7h15M80 7h12M94 7h6M0 8h1M2 8h13M18 8h2M21 8h5M27 8h5M35 8h1M40 8h1M42 8h4M47 8h1M49 8h2M52 8h1M54 8h3M58 8h7M66 8h8M75 8h3M79 8h3M84 8h3M88 8h9M98 8h2M0 9h6M7 9h5M13 9h7M21 9h1M24 9h1M27 9h8M37 9h15M53 9h4M58 9h1M60 9h5M66 9h4M71 9h2M74 9h4M79 9h2M82 9h8M91 9h2M94 9h1M96 9h2M99 9h1M0 10h4M5 10h1M7 10h1M9 10h8M18 10h8M27 10h6M34 10h6M41 10h3M45 10h1M47 10h5M55 10h1M58 10h16M76 10h10M87 10h4M92 10h6M99 10h1M0 11h1M2 11h6M9 11h7M17 11h1M19 11h3M23 11h1M25 11h6M32 11h8M43 11h15M59 11h5M66 11h2M69 11h6M77 11h15M93 11h3M97 11h3M0 12h1M2 12h5M8 12h3M12 12h3M16 12h3M20 12h2M23 12h4M28 12h2M31 12h2M34 12h1M36 12h6M43 12h6M50 12h7M58 12h5M64 12h4M69 12h2M72 12h2M75 12h1M77 12h3M81 12h7M89 12h1M91 12h6M98 12h2M0 13h1M2 13h2M5 13h4M10 13h9M20 13h19M40 13h1M42 13h3M46 13h6M53 13h2M56 13h6M63 13h1M66 13h4M71 13h3M75 13h1M77 13h2M80 13h5M86 13h1M88 13h5M94 13h2M97 13h3M0 14h6M7 14h1M9 14h4M14 14h3M18 14h1M20 14h4M25 14h2M28 14h1M30 14h2M33 14h5M39 14h9M50 14h6M58 14h1M60 14h2M63 14h4M68 14h2M71 14h2M74 14h8M83 14h3M88 14h1M90 14h4M96 14h2M99 14h1M0 15h5M6 15h5M12 15h5M18 15h2M21 15h1M23 15h1M25 15h2M28 15h8M39 15h4M46 15h3M51 15h12M68 15h8M78 15h3M82 15h1M85 15h4M90 15h1M92 15h3M96 15h4M1 16h2M4 16h4M9 16h9M19 16h1M21 16h17M39 16h5M45 16h2M48 16h7M56 16h1M58 16h1M60 16h6M69 16h2M72 16h1M74 16h4M79 16h3M83 16h1M85 16h1M87 16h1M89 16h4M94 16h2M97 16h3M0 17h6M8 17h2M11 17h5M18 17h7M28 17h3M32 17h8M41 17h8M50 17h4M55 17h4M60 17h2M64 17h12M77 17h4M82 17h1M84 17h2M87 17h5M93 17h3M97 17h3M0 18h10M11 18h1M13 18h1M15 18h1M17 18h2M20 18h9M31 18h7M39 18h7M47 18h4M52 18h5M59 18h3M63 18h1M66 18h10M78 18h1M81 18h3M85 18h5M92 18h3M96 18h1M98 18h1M1 19h8M10 19h1M12 19h8M21 19h3M25 19h1M27 19h4M34 19h2M37 19h4M43 19h1M45 19h12M58 19h3M63 19h1M65 19h1M69 19h3M73 19h1M75 19h3M79 19h2M82 19h1M84 19h1M87 19h7M96 19h2M99 19h1M0 20h2M4 20h1M6 20h3M10 20h3M14 20h4M19 20h3M23 20h2M27 20h3M31 20h3M35 20h6M42 20h7M50 20h1M52 20h2M55 20h7M63 20h6M70 20h3M75 20h5M81 20h9M91 20h2M94 20h5M0 21h2M3 21h1M6 21h1M8 21h3M12 21h3M16 21h3M20 21h1M22 21h2M25 21h2M28 21h1M30 21h6M37 21h5M43 21h1M45 21h4M51 21h8M60 21h11M72 21h2M75 21h4M80 21h2M83 21h1M85 21h3M89 21h11M0 22h3M4 22h9M14 22h6M21 22h1M24 22h3M29 22h2M32 22h12M45 22h2M48 22h3M53 22h7M61 22h2M64 22h4M69 22h5M76 22h2M79 22h1M81 22h2M84 22h1M86 22h5M92 22h5M98 22h2M0 23h10M11 23h1M13 23h3M18 23h4M23 23h1M25 23h5M31 23h23M56 23h6M63 23h4M68 23h2M71 23h3M75 23h5M82 23h6M90 23h4M95 23h5M0 24h2M3 24h1M5 24h3M9 24h1M13 24h1M15 24h9M25 24h6M32 24h9M42 24h7M50 24h1M52 24h10M63 24h1M65 24h1M68 24h5M75 24h1M77 24h3M81 24h1M83 24h1M85 24h2M88 24h2M92 24h6M99 24h1M0 25h2M3 25h3M9 25h2M13 25h1M15 25h7M24 25h3M28 25h5M36 25h2M39 25h4M44 25h12M57 25h1M60 25h1M62 25h5M68 25h3M73 25h16M90 25h2M93 25h5M99 25h1M0 26h3M4 26h1M6 26h1M8 26h21M30 26h5M37 26h1M39 26h7M47 26h1M49 26h2M52 26h5M58 26h1M60 26h6M67 26h2M70 26h7M78 26h1M81 26h1M83 26h5M89 26h3M95 26h2M98 26h2M0 27h12M14 27h3M19 27h3M23 27h8M32 27h4M37 27h2M40 27h2M43 27h3M47 27h2M51 27h8M60 27h2M63 27h2M66 27h4M71 27h3M76 27h2M79 27h6M89 27h6M97 27h1M99 27h1M0 28h6M8 28h7M16 28h1M18 28h2M21 28h1M23 28h7M32 28h2M35 28h11M48 28h1M51 28h5M57 28h1M59 28h6M66 28h1M68 28h1M70 28h8M79 28h3M83 28h1M85 28h2M89 28h3M93 28h3M97 28h1M99 28h1M0 29h4M7 29h1M9 29h3M13 29h2M18 29h2M22 29h4M29 29h1M31 29h2M34 29h8M43 29h3M47 29h1M50 29h19M70 29h6M78 29h3M82 29h15M98 29h2M0 30h4M5 30h9M16 30h8M27 30h2M30 30h3M34 30h5M40 30h3M45 30h2M48 30h3M52 30h1M54 30h2M58 30h1M60 30h10M71 30h1M73 30h2M77 30h19M97 30h3M0 31h5M6 31h2M9 31h4M14 31h3M20 31h5M26 31h1M29 31h8M38 31h4M43 31h1M45 31h1M50 31h2M55 31h2M58 31h2M61 31h1M63 31h12M76 31h3M81 31h4M87 31h4M92 31h2M95 31h1M97 31h3M0 32h2M3 32h14M18 32h1M20 32h3M24 32h1M26 32h1M28 32h5M34 32h2M37 32h2M41 32h1M44 32h3M48 32h15M65 32h3M69 32h2M72 32h4M77 32h2M80 32h6M87 32h1M89 32h9M99 32h1M0 33h5M6 33h1M8 33h1M10 33h9M21 33h4M27 33h1M29 33h3M34 33h1M36 33h2M40 33h3M44 33h1M46 33h5M55 33h4M61 33h10M72 33h1M74 33h3M78 33h2M81 33h6M88 33h2M91 33h4M96 33h4M0 34h1M2 34h1M4 34h6M11 34h1M13 34h6M20 34h2M26 34h36M63 34h2M66 34h1M69 34h1M71 34h1M73 34h6M80 34h1M82 34h5M88 34h4M93 34h1M95 34h5M1 35h4M6 35h5M12 35h2M15 35h8M24 35h6M31 35h1M33 35h7M41 35h4M47 35h3M51 35h1M53 35h3M57 35h2M60 35h3M64 35h1M66 35h3M72 35h2M75 35h1M77 35h1M79 35h5M85 35h2M88 35h6M95 35h2M98 35h2M0 36h3M6 36h1M8 36h2M11 36h2M14 36h1M16 36h2M20 36h1M22 36h6M29 36h3M33 36h7M41 36h3M45 36h5M51 36h3M57 36h1M59 36h6M66 36h2M69 36h7M77 36h1M80 36h5M86 36h1M88 36h4M94 36h1M96 36h4M1 37h2M4 37h7M13 37h1M15 37h2M19 37h2M22 37h3M26 37h1M28 37h4M33 37h5M41 37h2M45 37h7M54 37h3M58 37h1M60 37h1M63 37h4M68 37h1M70 37h4M77 37h2M80 37h1M83 37h4M90 37h4M95 37h3M99 37h1M1 38h3M5 38h1M8 38h4M13 38h4M18 38h13M32 38h9M42 38h2M45 38h6M52 38h3M56 38h16M77 38h2M80 38h2M84 38h6M91 38h2M94 38h1M96 38h4M0 39h1M4 39h5M11 39h7M20 39h3M24 39h1M27 39h2M30 39h9M41 39h1M43 39h5M49 39h7M57 39h1M59 39h4M66 39h4M72 39h1M75 39h3M79 39h3M83 39h2M86 39h2M89 39h2M92 39h8M0 40h11M13 40h1M15 40h3M19 40h8M30 40h2M33 40h3M38 40h1M40 40h5M46 40h7M54 40h2M58 40h12M71 40h9M82 40h1M84 40h3M88 40h9M98 40h2M0 41h2M4 41h2M7 41h2M11 41h9M21 41h3M26 41h4M33 41h2M36 41h5M42 41h2M45 41h3M49 41h3M53 41h4M58 41h1M61 41h7M69 41h3M73 41h4M78 41h5M85 41h4M90 41h2M93 41h2M97 41h1M99 41h1M0 42h3M4 42h1M6 42h4M11 42h3M15 42h1M18 42h9M28 42h4M33 42h3M37 42h4M43 42h2M46 42h3M50 42h5M56 42h2M60 42h1M62 42h5M70 42h8M80 42h4M85 42h6M93 42h1M95 42h5M0 43h5M7 43h2M10 43h6M17 43h3M21 43h2M24 43h1M26 43h3M30 43h1M32 43h14M47 43h5M53 43h16M70 43h17M89 43h5M95 43h5M0 44h4M7 44h2M10 44h6M17 44h1M19 44h1M21 44h2M24 44h2M28 44h6M35 44h4M40 44h2M43 44h3M47 44h3M51 44h1M53 44h3M57 44h8M66 44h1M68 44h4M74 44h1M76 44h5M82 44h3M87 44h1M89 44h4M94 44h4M99 44h1M0 45h2M4 45h1M6 45h1M8 45h2M11 45h4M16 45h3M20 45h1M22 45h7M30 45h4M37 45h7M45 45h1M47 45h1M49 45h10M60 45h8M70 45h4M75 45h9M85 45h8M94 45h2M97 45h3M0 46h5M7 46h2M10 46h1M13 46h9M23 46h2M26 46h2M29 46h6M36 46h12M49 46h22M73 46h4M78 46h1M81 46h1M83 46h9M93 46h5M2 47h6M9 47h2M12 47h3M16 47h3M21 47h1M25 47h7M33 47h3M37 47h1M40 47h4M45 47h4M50 47h7M58 47h2M61 47h2M65 47h2M68 47h8M77 47h5M83 47h4M88 47h1M90 47h7M99 47h1M0 48h2M3 48h4M8 48h1M10 48h1M12 48h5M18 48h2M21 48h2M24 48h1M26 48h5M32 48h7M41 48h2M45 48h2M48 48h2M51 48h1M54 48h1M58 48h5M64 48h8M73 48h9M83 48h15M99 48h1M1 49h7M10 49h8M19 49h1M22 49h4M27 49h1M30 49h1M32 49h5M38 49h1M40 49h3M44 49h1M46 49h1M48 49h1M51 49h1M53 49h11M65 49h10M76 49h2M79 49h5M85 49h4M90 49h3M95 49h4M0 50h1M2 50h3M6 50h1M8 50h4M13 50h1M15 50h2M18 50h2M21 50h2M25 50h9M35 50h11M47 50h8M57 50h2M60 50h2M63 50h4M68 50h1M72 50h2M76 50h2M80 50h4M85 50h1M87 50h13M0 51h3M5 51h1M9 51h7M18 51h13M32 51h6M39 51h3M44 51h4M49 51h1M52 51h2M55 51h4M60 51h2M63 51h1M65 51h4M70 51h2M73 51h3M78 51h3M82 51h2M87 51h7M95 51h5M0 52h1M4 52h2M7 52h1M9 52h9M19 52h1M22 52h6M30 52h1M32 52h14M47 52h1M49 52h2M53 52h4M58 52h5M64 52h7M72 52h2M75 52h19M95 52h1M97 52h3M0 53h1M2 53h2M5 53h1M7 53h2M10 53h6M17 53h4M22 53h3M26 53h1M28 53h2M32 53h1M34 53h3M38 53h2M45 53h5M51 53h1M53 53h5M61 53h1M65 53h2M68 53h5M76 53h6M83 53h7M91 53h1M93 53h7M0 54h9M10 54h2M13 54h14M28 54h7M36 54h6M43 54h5M49 54h4M54 54h1M56 54h1M58 54h3M62 54h9M73 54h2M77 54h1M80 54h6M87 54h13M0 55h1M2 55h1M4 55h6M11 55h7M20 55h2M24 55h1M26 55h5M33 55h10M44 55h5M50 55h2M53 55h7M63 55h1M65 55h1M67 55h10M78 55h1M80 55h3M84 55h3M88 55h2M91 55h1M94 55h6M0 56h1M2 56h9M12 56h4M17 56h1M20 56h3M24 56h4M29 56h1M31 56h2M34 56h4M40 56h4M45 56h2M49 56h4M54 56h3M58 56h9M69 56h6M76 56h7M84 56h6M91 56h9M0 57h3M5 57h3M9 57h2M12 57h8M21 57h8M30 57h3M34 57h10M45 57h4M50 57h6M57 57h9M67 57h3M71 57h13M85 57h1M87 57h2M90 57h2M93 57h4M98 57h2M0 58h2M3 58h1M6 58h3M10 58h6M17 58h1M19 58h2M22 58h5M28 58h1M30 58h3M34 58h1M36 58h7M44 58h1M46 58h1M48 58h1M50 58h3M54 58h10M65 58h2M68 58h7M76 58h1M78 58h4M83 58h1M86 58h5M92 58h4M97 58h3M0 59h7M9 59h3M13 59h2M16 59h1M18 59h6M25 59h5M31 59h5M37 59h9M49 59h2M52 59h2M55 59h3M59 59h3M63 59h7M71 59h1M73 59h3M78 59h7M86 59h3M90 59h3M94 59h3M98 59h2M1 60h2M4 60h1M6 60h4M12 60h4M17 60h2M20 60h6M28 60h1M30 60h3M34 60h3M38 60h2M41 60h1M43 60h4M48 60h4M53 60h1M55 60h1M57 60h6M66 60h1M68 60h1M70 60h1M72 60h4M77 60h6M85 60h6M93 60h5M99 60h1M0 61h2M3 61h4M10 61h10M21 61h5M27 61h6M34 61h1M36 61h8M45 61h1M47 61h8M56 61h2M60 61h4M66 61h5M72 61h7M80 61h8M89 61h11M0 62h6M7 62h6M14 62h1M16 62h6M25 62h29M55 62h1M57 62h4M62 62h11M74 62h4M81 62h1M83 62h3M87 62h1M89 62h3M93 62h3M99 62h1M0 63h1M2 63h10M13 63h2M16 63h3M20 63h1M22 63h5M28 63h3M32 63h1M35 63h14M50 63h5M56 63h1M59 63h1M61 63h4M66 63h2M69 63h6M76 63h1M78 63h4M83 63h10M94 63h6M0 64h1M2 64h5M8 64h1M10 64h4M15 64h3M19 64h3M23 64h4M30 64h1M32 64h3M38 64h5M44 64h4M50 64h1M53 64h2M56 64h3M60 64h3M64 64h2M68 64h2M73 64h2M76 64h1M78 64h1M80 64h12M93 64h4M98 64h2M2 65h13M16 65h3M20 65h4M25 65h5M31 65h4M36 65h3M40 65h6M47 65h3M51 65h2M54 65h4M59 65h3M63 65h1M65 65h3M70 65h4M75 65h9M85 65h3M91 65h9M0 66h7M8 66h6M15 66h1M17 66h7M25 66h4M34 66h3M38 66h3M42 66h2M45 66h3M49 66h3M53 66h5M59 66h12M73 66h2M76 66h2M79 66h2M82 66h5M88 66h2M92 66h2M95 66h1M97 66h2M3 67h1M5 67h4M11 67h13M25 67h5M31 67h3M36 67h4M41 67h3M45 67h5M52 67h8M62 67h4M67 67h4M72 67h3M76 67h1M78 67h1M80 67h2M83 67h2M86 67h2M89 67h9M99 67h1M0 68h2M3 68h5M9 68h3M13 68h2M16 68h3M20 68h3M24 68h1M27 68h4M32 68h4M37 68h2M40 68h4M45 68h2M48 68h2M51 68h1M55 68h2M58 68h1M60 68h14M76 68h6M83 68h12M96 68h3M0 69h1M2 69h5M8 69h6M15 69h3M19 69h9M30 69h3M35 69h2M38 69h4M43 69h1M45 69h1M47 69h10M58 69h3M63 69h6M70 69h7M78 69h3M82 69h18M0 70h3M5 70h2M8 70h16M26 70h2M29 70h4M35 70h3M39 70h2M42 70h4M47 70h1M50 70h9M60 70h2M63 70h20M86 70h2M89 70h3M93 70h7M1 71h4M8 71h4M13 71h6M20 71h7M30 71h1M33 71h2M36 71h1M38 71h5M44 71h1M51 71h5M57 71h2M61 71h1M63 71h4M68 71h3M72 71h10M83 71h6M90 71h4M95 71h5M0 72h3M4 72h4M10 72h4M15 72h2M19 72h14M34 72h9M44 72h5M50 72h2M53 72h2M56 72h1M58 72h3M62 72h1M64 72h7M72 72h4M77 72h10M88 72h4M93 72h1M95 72h5M0 73h4M6 73h1M8 73h12M21 73h4M26 73h1M28 73h7M36 73h3M41 73h4M46 73h1M48 73h2M52 73h1M54 73h3M59 73h13M74 73h2M77 73h1M79 73h2M84 73h5M91 73h9M2 74h19M23 74h4M28 74h2M31 74h5M37 74h1M39 74h1M41 74h5M47 74h2M50 74h1M52 74h2M56 74h1M58 74h6M65 74h15M81 74h5M88 74h4M93 74h2M96 74h4M0 75h1M2 75h1M4 75h6M11 75h3M15 75h6M22 75h1M24 75h7M32 75h3M37 75h13M51 75h9M61 75h1M63 75h1M65 75h11M77 75h1M79 75h1M81 75h1M83 75h2M87 75h3M91 75h2M94 75h6M0 76h11M12 76h2M16 76h7M24 76h1M26 76h10M37 76h2M41 76h3M45 76h2M48 76h1M50 76h5M56 76h2M60 76h2M63 76h3M67 76h6M74 76h7M83 76h8M92 76h4M97 76h3M0 77h5M6 77h5M12 77h9M22 77h2M25 77h3M29 77h1M31 77h16M50 77h9M60 77h3M64 77h9M74 77h1M76 77h11M88 77h1M90 77h1M92 77h8M0 78h15M17 78h2M21 78h2M25 78h5M31 78h2M34 78h1M36 78h8M50 78h1M53 78h2M56 78h2M59 78h6M67 78h2M70 78h2M74 78h7M82 78h1M85 78h15M0 79h5M6 79h3M12 79h4M17 79h8M26 79h6M34 79h6M41 79h1M43 79h1M45 79h4M50 79h4M55 79h2M58 79h5M64 79h1M66 79h1M69 79h1M74 79h3M78 79h3M83 79h2M86 79h1M88 79h3M92 79h3M96 79h4M1 80h3M5 80h13M20 80h2M23 80h2M26 80h3M30 80h3M37 80h2M40 80h1M43 80h1M45 80h5M51 80h1M53 80h1M55 80h6M62 80h9M72 80h1M74 80h2M77 80h4M82 80h4M87 80h6M94 80h6M3 81h2M6 81h1M8 81h2M11 81h5M19 81h1M21 81h2M24 81h6M31 81h7M39 81h6M47 81h8M56 81h2M60 81h1M64 81h4M70 81h2M73 81h6M80 81h3M86 81h2M90 81h1M92 81h4M97 81h3M1 82h9M11 82h6M18 82h2M21 82h2M24 82h2M28 82h12M41 82h2M44 82h1M46 82h2M50 82h2M54 82h1M56 82h6M63 82h2M67 82h1M71 82h2M76 82h1M79 82h7M87 82h2M90 82h2M93 82h4M99 82h1M0 83h1M2 83h1M5 83h1M7 83h2M10 83h2M13 83h6M20 83h2M23 83h1M28 83h6M35 83h4M40 83h7M48 83h12M62 83h6M70 83h6M77 83h2M81 83h2M84 83h6M91 83h3M95 83h2M98 83h2M0 84h2M3 84h3M7 84h1M9 84h8M18 84h6M25 84h4M30 84h8M39 84h4M44 84h2M47 84h1M49 84h2M52 84h2M55 84h2M59 84h3M64 84h3M68 84h14M83 84h1M86 84h7M94 84h6M1 85h1M3 85h3M7 85h2M10 85h3M14 85h7M22 85h5M28 85h2M32 85h2M36 85h4M41 85h6M48 85h4M53 85h13M67 85h3M72 85h2M76 85h3M81 85h9M91 85h2M94 85h6M0 86h5M6 86h8M16 86h3M21 86h8M30 86h2M35 86h5M41 86h2M44 86h7M52 86h1M54 86h1M56 86h6M63 86h5M71 86h3M75 86h7M84 86h3M88 86h1M91 86h1M93 86h3M97 86h3M0 87h1M2 87h1M4 87h6M11 87h3M15 87h1M19 87h2M22 87h11M34 87h1M36 87h3M40 87h2M45 87h1M49 87h1M51 87h3M57 87h7M65 87h9M76 87h1M78 87h1M81 87h4M86 87h1M88 87h3M93 87h5M99 87h1M0 88h3M4 88h3M8 88h1M10 88h2M13 88h2M16 88h2M19 88h3M23 88h5M29 88h3M33 88h2M36 88h5M42 88h1M44 88h7M52 88h5M59 88h1M62 88h3M66 88h3M72 88h3M76 88h8M85 88h5M92 88h1M95 88h2M98 88h2M0 89h9M10 89h3M14 89h9M24 89h2M29 89h1M31 89h2M34 89h1M39 89h3M44 89h2M48 89h1M50 89h1M52 89h1M54 89h6M61 89h1M63 89h2M66 89h1M69 89h4M74 89h1M76 89h5M82 89h4M88 89h8M0 90h8M10 90h8M19 90h11M31 90h6M38 90h1M41 90h4M46 90h3M51 90h9M61 90h11M73 90h2M76 90h5M83 90h3M87 90h1M89 90h5M96 90h2M99 90h1M1 91h1M3 91h2M7 91h1M10 91h1M12 91h2M15 91h2M18 91h3M22 91h8M32 91h2M36 91h8M46 91h3M51 91h4M56 91h1M58 91h2M61 91h3M65 91h3M69 91h3M75 91h9M86 91h1M88 91h1M90 91h2M94 91h3M98 91h1M0 92h1M2 92h5M8 92h4M14 92h6M21 92h2M25 92h3M31 92h11M43 92h7M53 92h2M56 92h1M58 92h4M64 92h1M67 92h5M73 92h4M79 92h4M84 92h1M86 92h7M94 92h1M96 92h2M99 92h1M0 93h13M14 93h2M17 93h4M22 93h7M30 93h1M32 93h3M36 93h2M39 93h1M41 93h2M44 93h11M56 93h1M58 93h9M68 93h1M70 93h3M74 93h9M84 93h5M90 93h5M96 93h4M1 94h4M7 94h3M11 94h3M16 94h2M21 94h3M25 94h1M29 94h1M31 94h6M38 94h5M44 94h2M47 94h1M49 94h5M57 94h10M68 94h21M90 94h9M0 95h1M2 95h6M9 95h23M33 95h13M47 95h4M52 95h1M54 95h1M57 95h1M59 95h3M63 95h2M67 95h4M73 95h1M75 95h3M80 95h2M83 95h2M87 95h1M89 95h1M91 95h9M0 96h2M3 96h1M7 96h2M10 96h2M13 96h1M15 96h3M19 96h1M22 96h6M29 96h1M32 96h4M37 96h4M44 96h4M49 96h1M51 96h2M54 96h2M57 96h1M59 96h4M65 96h2M68 96h1M70 96h11M82 96h3M86 96h4M91 96h4M96 96h1M98 96h2M0 97h5M6 97h2M9 97h4M14 97h2M18 97h5M24 97h3M29 97h2M32 97h4M38 97h2M42 97h3M46 97h5M52 97h1M56 97h7M64 97h4M70 97h1M72 97h1M74 97h7M82 97h2M85 97h1M88 97h7M96 97h2M0 98h4M5 98h7M13 98h4M18 98h4M23 98h1M26 98h1M28 98h1M31 98h1M34 98h3M38 98h3M42 98h2M46 98h2M49 98h2M52 98h2M57 98h1M59 98h6M66 98h2M69 98h4M74 98h3M78 98h1M80 98h11M92 98h8M0 99h2M3 99h2M6 99h2M9 99h1M11 99h9M21 99h4M26 99h3M30 99h2M34 99h6M41 99h4M46 99h1M49 99h1M51 99h2M54 99h8M63 99h1M65 99h4M70 99h8M80 99h2M83 99h1M85 99h3M89 99h5M95 99h5" />
<path stroke="#3c3c3c" d="M3 0h1M54 1h1M57 8h1M65 13h1M81 17h1M25 20h1M7 21h1M29 21h1M3 22h1M62 23h1M67 23h1M20 29h1M46 29h1M26 30h1M33 30h1M3 34h1M63 35h1M14 37h1M67 37h1M72 41h1M73 44h1M5 46h1M4 51h1M22 64h1M36 68h1M83 70h1M89 71h1M61 72h1M90 73h1M54 74h1M44 76h1M83 83h1M14 86h1M69 88h1M42 89h1M28 96h1M25 98h1" />
<path stroke="#0b0b0b" d="M6 0h1M87 0h1M9 1h1M34 3h1M15 4h1M17 14h1M67 16h1M20 22h1M11 25h1M35 25h1M15 28h1M47 32h1M43 33h1M32 37h1M39 40h1M56 40h1M24 41h1M52 41h1M44 47h1M52 52h1M53 56h1M12 59h1M39 65h1M50 65h1M88 65h2M2 67h1M78 73h1M46 78h1M58 81h1M69 82h1M97 82h2M34 83h1M34 86h1M27 97h1M68 97h1M86 97h1M33 98h1M58 98h1" />
<path stroke="#2b2b2b" d="M7 0h1M53 8h1M68 12h1M92 17h1M65 18h1M79 18h1M24 21h1M64 24h1M98 28h1M14 30h1M5 31h1M70 34h1M76 37h1M73 38h1M58 39h1M9 49h1M7 50h1M70 50h1M86 51h1M12 54h1M83 56h1M92 57h1M95 68h1M18 69h1M12 71h1M45 78h1M87 79h1M41 80h1M0 81h1M69 81h1M89 81h1M74 86h1M43 89h1M34 91h1M92 91h1M28 97h1" />
<path stroke="#242424" d="M9 0h1M44 1h1M79 2h1M24 3h1M91 18h1M23 25h1M34 25h1M26 29h1M19 32h1M39 33h1M68 36h1M82 37h1M91 39h1M32 41h1M59 41h1M81 44h1M15 45h1M89 57h1M48 59h1M56 60h1M86 62h1M27 63h1M36 64h1M53 65h1M75 66h1M30 67h1M82 67h1M64 74h1M28 77h1M20 78h1M68 82h1M43 87h1M98 87h1M98 89h1M50 91h1M55 92h1M85 92h1M21 96h1M90 96h1M94 99h1" />
<path stroke="#141414" d="M12 0h1M47 1h1M28 2h1M68 4h1M72 4h1M31 17h1M76 17h1M90 18h1M66 19h1M31 22h1M22 23h1M89 23h1M43 25h1M46 28h1M30 35h1M3 39h1M29 39h1M5 44h1M98 46h1M20 49h1M31 49h1M85 51h1M63 52h1M94 52h1M75 54h1M93 55h1M28 56h1M39 56h1M22 62h1M48 66h1M40 67h1M10 79h1M18 80h1M96 86h1M51 88h1M82 90h1M69 93h1M15 94h1M41 96h1" />
<path stroke="#0a0a0a" d="M19 0h1M35 0h1M80 6h1M58 11h1M30 12h1M27 14h1M17 15h1M37 15h1M66 16h1M12 18h1M69 20h1M12 25h1M72 30h1M18 31h1M41 41h1M11 47h1M23 47h1M49 49h1M43 51h1M76 51h1M2 52h1M44 53h1M62 59h1M61 62h1M28 64h1M71 64h1M12 68h1M18 72h1M51 73h1M72 81h1M13 89h1M36 89h1M13 97h1M32 98h1M10 99h1M48 99h1M82 99h1" />
<path stroke="#1b1b1b" d="M20 0h1M81 1h1M30 2h1M90 2h1M46 3h1M93 7h1M22 12h1M79 13h1M6 14h1M19 14h1M57 16h1M6 17h1M63 17h1M27 22h1M11 24h1M33 32h1M65 36h1M25 37h1M43 37h2M62 37h1M64 39h1M79 42h1M39 44h1M42 44h1M23 50h1M42 54h1M22 55h1M46 59h1M27 60h1M58 61h1M68 63h1M82 63h1M9 64h1M58 65h1M0 71h1M49 71h1M22 74h1M3 75h1M59 76h1M49 78h1M4 80h1M42 80h1M86 80h1M93 80h1M86 82h1M30 85h1M32 88h1M60 88h1M84 88h1M45 91h1M7 92h1M55 93h1M43 94h1M56 95h1M62 95h1M8 97h1" />
<path stroke="#0d0d0d" d="M21 0h1M33 5h1M36 6h1M93 9h1M9 13h1M86 16h1M26 20h1M87 24h1M3 26h1M82 26h1M46 27h1M22 28h1M24 30h1M53 30h1M28 31h1M94 31h1M35 33h1M68 34h1M17 37h1M38 37h1M4 38h1M81 40h1M72 48h1M62 50h1M38 51h1M29 58h1M82 58h1M35 67h1M74 68h1M39 73h1M0 74h1M36 75h1M61 81h1M66 82h1M47 83h1M46 84h1M33 87h1M44 87h1M74 87h1M79 87h1M84 91h1M40 93h1M20 94h1M24 98h1M54 98h1" />
<path stroke="#161616" d="M24 0h1M45 5h1M85 5h1M86 6h1M82 8h1M20 9h1M65 9h1M45 13h1M8 14h1M49 15h1M83 15h1M68 16h1M94 23h1M10 24h1M49 24h1M62 24h1M59 25h1M57 30h1M73 33h1M46 35h1M85 36h1M9 43h1M74 45h1M18 55h1M17 59h1M55 64h1M28 71h1M96 76h1M35 78h1M46 81h1M61 83h1M90 88h1M52 92h1M13 93h1M55 94h1M72 95h1M50 99h1" />
<path stroke="#151515" d="M36 0h1M45 1h1M5 5h1M97 8h1M25 9h1M96 11h1M56 14h1M24 15h1M26 17h1M12 24h1M56 28h1M69 29h1M17 31h1M86 31h1M71 33h1M95 36h1M28 40h1M1 55h1M16 56h1M44 57h1M47 58h1M47 60h1M7 64h1M43 64h1M79 64h1M26 68h1M71 72h1M14 75h1M24 78h1M38 81h1M45 82h1M62 86h1M51 89h1M73 89h1M86 89h1M35 93h1M38 93h1M19 94h1M53 97h1" />
<path stroke="#2c2c2c" d="M43 0h1M12 9h1M51 20h1M80 23h2M14 24h1M65 28h1M71 32h1M61 42h1M21 45h1M69 45h1M57 47h1M98 47h1M78 50h1M92 53h1M49 57h1M56 62h1M58 63h1M33 66h1M34 67h1M57 68h1M40 79h1M23 81h1M0 82h1M27 82h1M49 90h1M8 91h1M31 91h1M67 94h1M66 95h1M55 97h1" />
<path stroke="#181818" d="M62 0h1M85 0h1M85 1h1M4 7h1M33 8h1M6 10h1M76 15h1M9 19h1M44 21h1M76 24h1M92 25h1M80 26h1M17 32h1M88 32h1M55 36h1M55 38h1M26 39h1M2 41h1M92 42h1M56 48h1M62 55h1M30 56h1M43 58h1M15 62h1M72 66h1M24 67h1M85 70h1M4 73h1M58 76h1M89 82h1M1 83h1M66 85h1M80 85h1M7 88h1M65 89h1M87 89h1M30 91h1M79 98h1M91 98h1M79 99h1" />
<path stroke="#1d1d1d" d="M64 0h1M96 0h1M37 2h1M64 4h1M10 7h1M20 8h1M48 14h1M88 16h1M10 18h1M95 18h1M42 21h1M71 21h1M20 28h1M69 28h1M87 34h1M52 35h1M0 38h1M71 39h1M91 42h1M93 44h1M11 46h1M8 51h1M33 53h1M23 55h1M64 55h1M33 56h1M57 56h1M9 58h1M96 58h1M77 63h1M90 65h1M24 66h1M75 68h1M61 69h1M69 69h1M47 76h1M40 82h1M53 82h1M74 85h1M43 86h1M48 87h1M70 88h1M68 89h1M75 90h1M55 91h1" />
<path stroke="#121212" d="M67 0h1M75 4h1M13 5h1M77 6h1M81 6h1M23 9h1M40 17h1M97 18h1M41 19h1M83 19h1M9 20h1M88 23h1M12 27h1M31 27h1M42 27h1M86 27h1M84 28h1M42 31h1M33 33h1M40 35h1M3 37h1M51 38h1M90 38h1M23 39h1M82 39h1M52 49h1M64 49h1M89 49h1M24 50h1M62 51h1M1 52h1M47 59h1M64 60h1M65 61h1M88 67h1M84 70h1M49 72h1M58 78h1M22 80h1M18 81h1M55 86h1M14 87h1M47 87h1M95 90h1M99 91h1M24 94h1M36 96h1M29 99h1" />
<path stroke="#3f3f3f" d="M71 0h1M22 3h1M38 5h1M14 6h1M63 7h1M59 16h1M74 21h1M35 26h1M18 27h1M23 32h1M78 39h1M35 41h1M29 43h1M50 49h1M59 51h1M25 55h1M66 55h1M29 57h1M4 58h1M67 58h1M88 61h1M29 66h1M32 66h1M96 66h1M30 77h1M51 78h1M79 83h1M27 85h1M75 87h1M53 95h1M40 99h1M78 99h1" />
<path stroke="#1a1a1a" d="M73 0h1M52 1h1M5 2h1M63 2h1M86 3h1M50 4h1M68 11h1M62 20h1M28 22h1M27 25h1M38 25h1M8 29h1M19 31h1M76 35h1M18 39h1M25 39h1M59 42h1M46 44h1M50 44h1M86 44h1M10 45h1M52 48h1M50 51h1M58 53h1M92 55h1M89 59h1M5 60h1M55 61h1M21 63h1M31 63h1M75 64h1M71 66h1M47 71h1M68 79h1M67 84h1M29 86h1M83 86h1M1 87h1M65 88h1M35 91h1M64 91h1M73 93h1M73 97h1M27 98h1" />
<path stroke="#101010" d="M74 0h1M74 8h1M41 11h1M75 11h1M50 15h1M16 17h1M23 22h1M36 26h1M85 27h1M16 29h1M38 33h1M10 34h1M72 34h1M45 35h1M44 36h1M39 39h1M65 44h1M53 48h1M15 63h1M9 67h1M4 70h1M94 71h1M62 82h1M4 83h1M34 85h1M40 85h1M94 88h1M57 92h1M89 94h1M74 95h1M2 99h1M53 99h1" />
<path stroke="#222222" d="M78 0h1M21 7h1M37 8h1M93 16h1M16 18h1M24 19h1M42 19h1M90 20h1M17 28h1M58 28h1M30 29h1M31 38h1M16 43h1M27 44h1M48 45h1M25 48h1M17 50h1M79 50h1M67 56h1M70 57h1M35 58h1M75 58h1M35 65h1M46 70h1M92 70h1M58 73h1M73 78h1M67 79h1M73 80h1M9 85h1M16 87h1M28 89h1M8 90h1M9 91h1M1 92h1M83 92h1M37 98h1" />
<path stroke="#010101" d="M86 0h1M22 4h1M46 8h1M64 11h1M70 13h1M85 13h1M67 14h1M87 14h1M27 15h1M80 18h1M39 27h1M52 31h1M45 33h1M52 37h1M79 37h1M81 37h1M98 37h1M76 38h1M2 39h1M69 43h1M20 44h1M56 44h1M29 45h1M57 52h1M31 55h1M19 56h1M45 58h1M19 63h1M65 63h1M71 71h1M16 78h1M84 78h1M55 87h1M38 89h1M95 92h1M89 93h1M99 94h1M16 97h1" />
<path stroke="#1c1c1c" d="M91 0h1M80 3h1M9 4h1M17 6h1M56 6h1M48 7h1M57 9h1M19 12h1M46 18h1M99 20h1M70 23h1M66 24h1M8 25h1M59 27h1M82 28h1M47 30h1M85 31h1M77 33h1M54 36h1M76 36h1M69 42h1M9 46h1M38 47h1M42 51h1M21 52h1M16 53h1M97 64h1M50 73h1M26 82h1M78 82h1M87 86h1M46 87h1M93 88h1M11 91h1M95 93h1" />
<path stroke="#212121" d="M92 0h1M48 8h1M51 8h1M55 13h1M83 17h1M19 18h1M77 18h1M73 24h1M36 27h1M78 28h1M33 29h1M63 32h1M53 33h1M87 36h1M21 37h1M40 39h1M6 41h1M5 45h1M34 45h1M59 45h1M22 47h1M32 47h1M21 53h1M40 53h1M83 55h1M66 57h1M49 58h1M58 59h1M93 63h1M52 64h1M19 65h1M30 65h1M84 65h1M15 68h1M47 68h1M50 68h1M27 74h1M30 74h1M57 74h1M93 75h1M57 79h1M82 79h1M20 82h1M9 83h1M92 87h1M97 89h1M37 90h1M72 91h1M85 95h1M30 96h1M77 98h1" />
<path stroke="#131313" d="M97 0h1M60 2h1M40 6h1M24 7h1M97 12h1M36 15h1M78 22h1M49 27h1M70 30h1M37 31h1M75 31h1M60 33h1M88 39h1M36 45h1M80 46h1M84 49h1M59 50h1M49 55h1M24 59h1M84 60h1M8 61h1M27 64h1M63 64h1M50 67h1M19 68h1M57 69h1M24 70h1M62 71h1M82 73h1M80 74h1M25 80h1M10 81h1M30 81h1M18 87h1M96 89h1M14 91h1M82 95h1" />
<path stroke="#272727" d="M4 1h1M73 3h1M37 4h1M29 7h1M98 10h1M42 11h1M64 13h1M87 13h1M96 13h1M59 14h1M20 15h1M59 17h1M67 19h1M22 25h1M61 25h1M88 27h1M67 42h1M7 48h1M26 49h1M94 51h1M6 53h1M31 53h1M63 53h1M11 56h1M20 57h1M84 58h1M76 60h1M14 64h1M1 69h1M7 71h1M91 76h1M5 77h1M21 77h1M69 78h1M55 81h1M3 87h1M17 87h1M17 91h1M42 92h1M30 94h1M56 94h1" />
<path stroke="#050505" d="M6 1h1M52 2h1M76 3h1M91 3h1M41 5h1M56 5h1M24 6h1M28 6h1M45 7h1M95 14h1M58 18h1M31 19h1M74 20h1M97 26h1M71 35h1M88 37h1M82 38h1M77 41h1M9 44h1M19 47h1M78 49h1M96 52h1M85 59h1M83 60h1M92 60h1M29 64h1M85 67h1M62 76h1M61 80h1M83 81h1M31 85h1M35 85h1M94 90h1M23 92h1M37 94h1M42 96h1M25 99h1" />
<path stroke="#3d3d3d" d="M13 1h1M66 5h1M71 5h1M1 11h1M89 14h1M30 18h1M62 18h1M26 19h1M30 20h1M41 20h1M5 21h1M30 23h1M17 27h1M49 28h1M44 30h1M80 33h1M5 35h1M32 35h1M5 36h1M21 36h1M74 38h1M1 47h1M72 54h1M13 62h1M49 64h1M39 68h1M41 70h1M43 72h1M87 74h1M49 77h1M91 77h1M44 79h1M72 79h2M7 81h1M39 83h1M94 83h1M68 86h1M21 87h1M30 89h1M98 90h1M83 93h1M28 94h1M2 96h1M31 97h1M47 99h1" />
<path stroke="#3e3e3e" d="M30 1h1M47 2h1M61 2h1M81 5h1M17 8h1M34 8h1M46 10h1M22 11h1M45 15h1M3 16h1M3 20h1M68 22h1M2 24h1M6 29h1M44 31h1M5 33h1M65 34h1M81 34h1M94 35h1M56 36h1M65 39h1M97 40h1M93 45h1M23 48h1M8 49h1M21 49h1M74 50h2M31 51h1M86 54h1M2 58h1M77 59h1M52 60h1M23 62h1M1 67h1M77 69h1M28 70h1M9 72h1M35 75h1M73 76h1M39 80h1M48 82h1M90 86h1M58 88h1M46 89h1M5 94h1M71 97h1M8 99h1M64 99h1" />
<path stroke="#363636" d="M32 1h1M28 3h1M81 3h1M15 8h1M70 9h1M4 24h1M90 24h1M29 30h1M32 33h1M79 34h1M69 37h1M75 37h1M60 41h1M78 42h1M2 45h1M67 47h1M52 53h1M71 54h1M4 57h1M30 59h1M72 64h1M1 65h1M25 68h1M52 68h1M38 74h1M39 76h1M10 82h1M20 86h1M9 90h1M81 96h1M4 98h1" />
<path stroke="#373737" d="M36 1h1M66 1h1M15 6h1M31 6h1M83 6h1M65 8h1M26 9h1M11 15h1M95 15h1M96 17h1M84 18h1M91 22h1M8 24h1M15 30h1M75 30h1M27 32h1M36 32h1M10 36h1M20 48h1M99 49h1M50 53h1M19 55h1M72 59h1M12 63h1M92 64h1M4 67h1M14 69h1M59 71h1M76 72h1M15 78h1M24 84h1M48 84h1M71 85h1M77 92h1M9 96h1M69 99h1" />
<path stroke="#060606" d="M40 1h1M26 2h1M87 8h1M90 9h1M64 15h1M44 16h1M49 17h1M36 19h1M94 19h1M13 22h1M85 22h1M31 24h1M34 28h1M18 36h1M32 36h1M37 40h1M70 40h1M71 46h1M39 47h1M82 48h1M29 49h1M64 51h1M46 52h1M67 53h1M43 55h1M75 63h1M67 64h1M54 68h1M35 71h1M43 71h1M45 73h1M51 74h1M76 83h1M51 84h1M67 89h1M5 91h1M31 93h1M8 95h1M71 95h1M33 99h1" />
<path stroke="#2e2e2e" d="M43 1h1M56 3h1M36 9h1M57 12h1M76 13h1M73 16h1M7 17h1M64 18h1M63 22h1M72 25h1M30 28h1M4 29h1M76 29h1M52 33h1M22 34h1M79 38h1M9 39h1M74 39h1M5 43h1M26 44h1M49 47h1M0 49h1M86 50h1M42 60h1M2 61h1M88 62h1M51 64h1M31 66h1M8 72h1M57 73h1M89 73h1M36 74h1M49 76h1M32 79h1M81 80h1M3 83h1M17 84h1M82 84h1M51 86h1M67 93h1M51 95h1M20 99h1" />
<path stroke="#303030" d="M49 1h1M89 3h1M74 6h1M92 7h1M98 9h1M33 12h1M62 14h1M57 19h1M24 24h1M51 24h1M67 28h1M92 28h1M2 32h1M90 33h1M59 35h1M40 36h1M58 42h1M16 44h1M72 46h1M87 47h1M6 51h1M31 52h1M71 52h1M74 53h1M79 55h1M77 58h1M3 60h1M26 60h1M30 66h1M7 69h1M6 71h1M14 76h1M52 82h1M70 82h1M80 83h1M13 85h1M42 87h1M3 88h1M49 89h1M13 92h1M51 92h1M10 94h1M55 95h1M56 98h1" />
<path stroke="#393939" d="M53 1h1M10 5h1M40 5h1M74 5h1M65 15h1M4 21h1M59 21h1M17 23h1M70 27h1M92 34h1M79 36h1M31 43h1M7 45h1M12 46h1M71 50h1M74 52h1M61 54h1M11 57h1M76 59h1M44 61h1M71 61h1M24 65h1M44 69h1M60 75h1M48 78h1M17 82h1M43 88h1M75 88h1M32 95h1M37 97h1M45 97h1M69 97h1" />
<path stroke="#232323" d="M56 1h1M8 4h1M16 5h1M53 10h1M38 14h1M8 16h1M62 19h1M96 27h1M87 28h1M97 29h1M28 36h1M94 42h1M20 43h1M46 43h1M18 44h1M3 45h1M43 48h1M94 49h1M53 54h1M55 54h1M53 58h1M80 62h1M34 63h1M78 66h1M28 69h1M40 73h1M55 74h1M73 77h1M69 83h1M97 83h1M6 85h1M21 85h1M93 85h1M82 86h1M28 92h1M58 95h1M18 96h1" />
<path stroke="#020202" d="M58 1h1M9 2h1M38 6h1M75 6h1M79 7h1M32 8h1M11 12h1M52 13h1M24 14h1M22 15h1M82 16h1M11 21h1M94 26h1M7 33h1M23 34h1M3 42h1M16 42h1M87 43h2M23 44h1M22 46h1M31 48h1M50 48h1M18 49h1M30 53h1M35 54h1M60 55h1M33 58h1M41 66h1M94 66h1M31 71h1M82 71h1M1 74h1M64 75h1M81 76h1M76 80h1M68 81h1M63 84h1M57 88h1M62 92h1M26 94h1M5 96h1" />
<path stroke="#0e0e0e" d="M64 1h1M31 3h1M30 5h1M88 5h1M94 5h1M39 13h1M29 14h1M51 18h1M47 22h1M84 24h1M28 29h1M43 30h1M95 33h1M19 34h1M84 35h1M93 36h1M83 38h1M20 41h1M99 46h1M16 51h1M37 53h1M21 58h1M70 59h1M10 60h1M68 65h1M10 67h1M62 69h1M81 69h1M48 70h1M67 71h1M52 72h1M57 72h1M47 73h1M15 76h1M72 78h1M60 89h1M0 91h1M73 91h1M93 92h1M43 93h1M51 98h1" />
<path stroke="#0c0c0c" d="M65 1h1M65 2h1M70 2h1M3 6h1M49 6h1M1 8h1M92 11h1M89 15h1M18 20h1M55 23h1M19 33h1M63 39h1M48 46h1M59 53h1M61 55h1M6 62h1M98 67h1M87 72h1M23 75h1M76 75h1M78 75h1M80 75h1M36 76h1M63 77h1M66 78h1M70 79h1M92 86h1M64 87h1M87 87h1M49 91h1M18 94h1M84 99h1" />
<path stroke="#353535" d="M70 1h1M35 3h1M29 5h1M18 6h1M35 12h1M90 12h1M47 16h1M97 22h1M16 23h1M77 26h1M22 27h1M50 28h1M49 31h1M25 34h1M89 37h1M27 40h1M32 40h1M83 40h1M10 41h1M60 47h1M48 51h1M6 52h1M52 55h1M38 56h1M68 56h1M19 60h1M57 63h1M51 67h1M75 67h1M31 68h1M35 73h1M72 73h1M59 77h1M16 81h2M38 84h1M35 87h1M28 88h1M97 91h1M12 92h1M29 93h1M53 96h1M40 97h1M84 97h1" />
<path stroke="#090909" d="M86 1h1M68 3h1M11 4h1M52 6h1M85 6h1M16 8h1M76 11h1M77 15h1M81 15h1M25 17h1M80 20h1M13 27h1M62 31h1M94 34h1M87 35h1M85 39h1M84 41h1M52 43h1M34 44h1M57 48h1M75 53h1M78 54h1M33 69h1M37 71h1M19 78h1M33 78h1M77 79h1M44 80h1M6 84h1M8 84h1M15 86h1M18 90h1M79 95h1" />
<path stroke="#292929" d="M91 1h1M6 3h1M85 4h1M99 4h1M19 5h1M40 11h1M76 18h1M32 19h1M51 26h1M75 27h1M5 29h1M69 35h1M44 38h1M96 41h1M96 45h1M92 46h1M63 48h1M39 49h1M47 49h1M69 51h1M93 59h1M91 60h1M83 73h1M35 80h1M50 80h1M54 84h1M53 89h1M78 95h1M97 96h1M5 97h1M17 97h1M17 98h1M65 98h1M68 98h1M62 99h1" />
<path stroke="#171717" d="M19 2h1M66 3h1M97 3h1M35 6h1M94 6h1M6 9h1M52 9h1M56 10h1M19 13h1M29 18h1M2 25h1M46 26h1M77 29h1M54 31h1M25 33h1M54 33h1M12 34h1M62 34h1M19 36h1M56 39h1M36 40h1M68 41h1M8 52h1M77 55h1M0 67h1M46 71h1M86 74h1M12 83h1M1 95h1M20 96h1M48 96h1" />
<path stroke="#1e1e1e" d="M25 2h1M80 2h1M63 3h1M33 19h1M83 22h1M67 25h1M98 25h1M1 34h1M0 37h1M57 37h1M75 38h1M95 38h1M35 45h1M76 47h1M40 48h1M43 49h1M67 50h1M79 54h1M1 56h1M90 56h1M79 62h1M5 71h1M95 74h1M82 75h1M40 76h1M47 78h1M55 78h1M25 79h1M81 79h1M5 86h1M15 88h1M62 89h1M87 97h1M45 98h1" />
<path stroke="#333333" d="M57 2h1M81 2h1M0 3h1M64 5h1M65 11h1M74 13h1M94 14h1M22 20h1M79 21h1M33 25h1M79 26h1M92 26h1M78 27h1M27 29h1M39 30h1M47 31h1M57 31h1M96 31h1M68 32h1M79 32h1M11 35h1M4 44h1M6 46h1M82 46h1M9 48h1M72 51h1M82 53h1M10 55h1M47 56h1M51 59h1M40 60h1M69 60h1M31 64h1M62 65h1M74 65h1M8 68h1M3 70h1M17 72h1M31 75h1M43 82h1M73 82h1M22 83h1M57 91h1M93 91h1M6 94h1M95 97h1M41 98h1M32 99h1M88 99h1" />
<path stroke="#2d2d2d" d="M5 3h1M0 6h1M37 6h1M26 7h1M49 14h1M73 20h1M6 25h1M48 31h1M25 32h1M86 32h1M24 34h1M50 36h1M58 36h1M7 38h1M95 41h1M84 42h1M44 45h1M93 49h1M34 50h1M56 50h1M41 53h1M9 54h1M90 55h1M36 59h1M29 60h1M7 61h1M79 61h1M71 67h1M19 71h1M55 72h1M46 74h1M82 76h1M52 78h1M11 79h1M34 80h1M79 81h1M23 82h1M68 83h1M75 85h1M91 88h1M97 88h1M27 89h1M44 91h1M65 92h1M46 94h1M50 96h1M22 98h1" />
<path stroke="#202020" d="M8 3h1M41 4h1M84 6h1M55 16h1M96 16h1M86 17h1M49 21h1M81 29h1M78 36h1M61 37h1M9 41h1M68 42h1M73 53h1M91 58h1M64 65h1M69 65h1M87 66h1M53 68h1M5 73h1M10 75h1M33 80h1M2 81h1M75 82h1M92 82h1M41 88h1M44 98h1" />
<path stroke="#111111" d="M10 3h1M36 4h1M24 11h1M18 16h1M21 21h1M0 35h1M6 38h1M19 39h1M83 41h1M14 42h1M63 47h1M98 48h1M43 53h1M60 53h1M37 60h1M1 64h1M37 66h1M90 66h1M44 68h1M63 79h1M71 80h1M88 81h1M60 83h1M19 86h1M69 86h1M26 89h1M39 90h1M89 91h1M57 93h1M88 95h1M81 97h1M29 98h1" />
<path stroke="#282828" d="M59 3h1M95 9h1M44 10h1M52 10h1M1 12h1M13 14h1M62 17h1M99 18h1M2 21h1M50 21h1M74 22h1M62 27h1M10 42h1M49 42h1M23 43h1M5 50h1M90 53h1M76 54h1M3 55h1M16 58h1M98 60h1M73 62h1M2 68h1M25 70h1M92 72h1M24 77h1M48 77h1M89 77h1M42 79h1M77 82h1M25 83h1M79 85h1M2 91h1M60 91h1M74 91h1M24 92h1M23 97h1M51 97h1" />
<path stroke="#3b3b3b" d="M65 3h1M78 9h1M54 10h1M15 12h1M27 12h1M71 12h1M95 19h1M34 20h1M49 20h1M89 25h1M12 29h1M48 29h1M96 30h1M79 31h1M28 33h1M78 35h1M87 37h1M70 39h1M57 40h1M92 41h1M88 44h1M68 45h1M20 52h1M48 52h1M4 53h1M27 58h1M64 58h1M15 59h1M16 66h1M79 67h1M49 70h1M20 73h1M75 77h1M54 79h1M65 79h1M90 83h1M0 94h1M12 96h1M5 99h1" />
<path stroke="#313131" d="M71 3h1M35 5h1M63 6h1M3 7h1M13 7h1M1 13h1M44 15h1M0 19h1M20 19h1M44 22h1M14 25h1M69 26h1M87 27h1M21 29h1M51 30h1M13 31h1M9 33h1M20 33h1M23 35h1M7 36h1M80 40h1M87 40h1M36 47h1M20 50h1M46 50h1M3 52h1M42 53h1M86 57h1M24 62h1M92 62h1M42 69h1M27 73h1M53 73h1M92 74h1M85 75h2M83 78h1M85 79h1M32 86h1M39 87h1M50 87h1M85 91h1M66 92h1M21 93h1M55 98h1" />
<path stroke="#2a2a2a" d="M75 3h1M1 4h1M79 5h1M4 10h1M93 13h1M70 14h1M57 18h1M58 25h1M59 30h1M76 30h1M92 36h1M74 37h1M12 38h1M89 41h1M98 41h1M5 42h1M41 42h1M2 48h1M55 48h1M28 49h1M45 49h1M1 50h1M12 50h1M77 51h1M84 51h1M25 53h1M87 55h1M8 57h1M85 58h1M7 59h1M82 62h1M37 64h1M7 66h1M44 66h1M60 67h1M14 72h1M44 78h1M5 79h1M20 81h1M29 84h1M47 85h1M78 92h1M16 93h1M43 96h1M67 96h1M85 96h1" />
<path stroke="#343434" d="M92 3h1M40 4h1M38 8h1M22 9h1M78 16h1M54 17h1M85 19h1M82 21h1M84 21h1M75 22h1M10 23h1M67 24h1M80 24h1M5 26h1M7 28h1M59 33h1M74 35h1M53 40h1M19 45h1M1 53h1M57 54h1M75 56h1M54 59h1M35 61h1M59 61h1M46 65h1M82 68h1M50 71h1M0 80h1M59 81h1M84 81h1M74 82h1M43 84h1M62 84h1M80 87h1M22 88h1M30 92h1M48 98h1" />
<path stroke="#252525" d="M14 4h1M73 9h1M40 10h1M62 13h1M88 21h1M74 24h1M88 26h1M93 26h1M6 28h1M42 39h1M48 39h1M75 44h1M98 44h1M28 46h1M7 51h1M56 57h1M20 61h1M33 61h1M54 62h1M35 64h1M37 69h1M49 74h1M23 76h1M11 77h1M30 78h1M29 80h1M1 81h1M40 90h1M30 98h1" />
<path stroke="#262626" d="M27 4h1M43 5h1M74 10h1M91 10h1M73 14h1M38 15h1M11 19h1M93 20h1M22 22h1M41 24h1M88 28h1M3 36h1M94 37h1M3 51h1M17 51h1M81 51h1M97 57h1M54 60h1M67 60h1M97 62h1M49 63h1M60 63h1M91 66h1M61 67h1M59 68h1M29 69h1M27 71h1M40 74h1M1 75h1M47 77h1M71 79h1M91 81h1M85 84h1M2 85h1M10 87h1M81 90h1M63 92h1M31 96h1M73 98h1" />
<path stroke="#3a3a3a" d="M47 4h1M55 4h1M90 6h1M63 12h1M88 12h1M4 13h1M41 13h1M57 14h1M43 15h1M17 17h1M14 18h1M38 18h1M72 19h1M12 23h1M96 28h1M15 29h1M13 36h1M18 37h1M72 38h1M57 41h1M94 43h1M82 47h1M97 47h1M44 48h1M14 50h1M55 50h1M69 50h1M84 50h1M54 51h1M28 52h1M77 64h1M14 66h1M81 66h1M66 67h1M29 71h1M48 71h1M94 72h1M62 75h1M55 76h1M65 78h1M95 79h1M49 82h1M93 84h1M20 92h1M50 92h1M65 95h1M56 96h1M58 96h1" />
<path stroke="#1f1f1f" d="M54 4h1M7 12h1M42 12h1M32 14h1M38 16h1M98 19h1M5 20h1M29 26h1M57 26h1M87 33h1M73 39h1M36 42h1M6 43h1M72 44h1M11 48h1M9 53h1M18 56h1M0 60h1M98 62h1M33 63h1M99 66h1M25 73h1M76 73h1M21 74h1M62 81h1M33 86h1M53 86h1M98 92h1M98 97h1M45 99h1" />
<path stroke="#030303" d="M1 5h1M26 8h1M83 8h1M81 9h1M17 10h1M16 11h1M78 19h1M51 22h2M24 23h1M7 26h1M60 31h1M59 37h1M11 40h1M3 41h1M17 42h1M46 45h1M77 46h1M64 53h1M48 54h1M32 55h1M3 57h1M5 58h1M44 67h1M7 70h1M34 70h1M88 70h1M25 76h1M19 83h1M26 83h1M23 89h1M47 89h1M45 90h1M48 94h1M86 95h1M69 96h1" />
<path stroke="#191919" d="M61 5h1M53 6h1M61 6h1M16 7h1M86 10h1M18 11h1M31 11h1M82 14h1M84 16h1M56 25h1M17 29h1M25 30h1M64 32h1M97 35h1M11 37h1M53 37h1M29 40h1M35 46h1M15 47h1M51 51h1M18 52h1M9 61h1M1 63h1M48 64h1M77 67h1M7 73h1M11 76h1M91 79h1M5 81h1M45 81h1M96 81h1M65 82h1M58 84h1M71 88h1M99 89h1M88 90h1M64 96h1M95 96h1" />
<path stroke="#080808" d="M73 5h1M57 10h1M75 10h1M76 12h1M20 16h1M68 19h1M82 24h1M71 25h1M98 27h1M31 28h1M26 33h1M51 33h1M67 34h1M17 38h1M30 41h1M85 44h1M0 47h1M24 47h1M75 49h1M27 53h1M48 56h1M18 64h1M0 65h1M52 66h1M38 70h1M73 73h1M81 73h1M85 81h1M24 83h1M0 85h1M70 86h1M35 88h1M60 90h1M46 95h1M14 96h1" />
<path stroke="#383838" d="M76 5h1M82 6h1M36 7h1M8 10h1M84 15h1M0 16h1M36 21h1M59 26h1M50 35h1M12 37h1M10 39h1M25 41h1M27 42h1M32 42h1M25 43h1M8 47h1M44 56h1M84 57h1M8 59h1M55 63h1M15 65h1M59 70h1M62 70h1M21 75h1M90 75h1M66 76h1M23 78h1M57 84h1M56 87h1M85 87h1M21 91h1M29 92h1M27 94h1M36 97h1" />
<path stroke="#2f2f2f" d="M36 8h1M59 9h1M49 12h1M86 14h1M67 15h1M64 19h1M54 20h1M19 21h1M91 24h1M98 24h1M38 26h1M91 31h1M56 35h1M70 35h1M4 36h1M41 38h1M55 42h1M6 44h1M52 44h1M29 52h1M18 58h1M65 60h1M46 61h1M46 69h1M32 71h1M56 71h1M63 72h1M87 77h1M16 79h1M55 82h1M27 83h1M89 86h1M72 90h1M6 91h1M54 97h1" />
<path stroke="#323232" d="M39 8h1M98 14h1M63 15h1M91 15h1M10 17h1M81 19h1M66 26h1M47 28h1M46 31h1M53 31h1M27 37h1M39 37h1M93 38h1M1 39h1M31 41h1M64 47h1M89 47h1M62 53h1M33 57h1M11 60h1M16 60h1M63 60h1M64 61h1M78 62h1M58 66h1M23 68h1M81 78h1M49 79h1M6 83h1M90 85h1M9 89h1M14 94h1" />
<path stroke="#040404" d="M41 8h1M78 8h1M35 9h1M26 10h1M8 11h1M80 12h1M27 17h1M44 19h1M61 19h1M74 19h1M86 19h1M27 21h1M39 32h1M76 32h1M12 40h1M45 40h1M45 42h1M39 48h1M37 49h1M51 52h1M27 54h1M23 56h1M97 59h1M26 61h1M99 68h1M33 70h1M33 72h1M9 79h1M33 79h1M36 80h1M52 80h1M63 81h1M84 84h1M52 85h1M54 87h1M91 87h1M33 89h1M37 89h1M50 90h1M54 94h1M63 96h1" />
<path stroke="#0f0f0f" d="M33 10h1M13 20h1M60 22h1M80 22h1M54 23h1M7 25h1M48 26h1M74 27h1M8 31h1M25 31h1M27 31h1M80 31h1M42 32h1M98 32h1M65 35h1M15 36h1M40 37h1M67 44h1M84 45h1M25 46h1M79 46h1M17 48h1M60 71h1M50 75h1M19 80h1M2 84h1M40 86h1M77 87h1M9 88h1M12 88h1M61 88h1M81 89h1M30 90h1M86 90h1M68 91h1M87 91h1M6 96h1M41 97h1M99 97h1" />
<path stroke="#070707" d="M74 12h1M5 15h1M66 15h1M71 16h1M2 20h1M15 21h1M74 23h1M50 27h1M65 27h1M95 27h1M42 29h1M49 29h1M4 30h1M56 30h1M43 32h1M14 35h1M14 40h1M18 40h1M44 41h1M48 41h1M42 42h1M20 47h1M47 48h1M33 60h1M71 60h1M96 62h1M59 64h1M34 69h1M45 71h1M3 72h1M54 80h1M70 85h1M18 88h1M35 89h1M75 89h1M72 92h1M90 95h1M4 96h1M63 97h1M12 98h1" />
<path stroke="#404040" d="M40 32h1M66 64h1M70 64h1" />
</svg>